# xmcd
#
# Track frame offsets:
#	150
#	12630
#	22755
#	32708
#	42706
#	54631
#	66931
#	77889
#	87722
#	95792
#	108925
#
# Disc length: 1599 seconds
#
# Revision: 1
# Processed by: cddbd v1.5.2PL0 Copyright (c) Steve Scherf et al.
# Submitted via: audiograbber 1.83.01
#
DISCID=96063d0b
DTITLE=Walter Brennan - Mama Sang A Song
DYEAR=1962
DGENRE=Country
TTITLE0=Mama Sang A Song
TTITLE1=The Old Blacksmith Shop
TTITLE2=Family Reunion
TTITLE3=Red Checkered Tablecloth
TTITLE4=Two Rockin' Chairs
TTITLE5=The Green, Green Valey
TTITLE6=Houdini
TTITLE7=Angles In The Sky
TTITLE8=Who Will Take Gramma
TTITLE9=Last Will And Testament Of Sam Burke
TTITLE10=Touch Of The Master's Hand
EXTD=
EXTT0=
EXTT1=
EXTT2=
EXTT3=
EXTT4=
EXTT5=
EXTT6=
EXTT7=
EXTT8=
EXTT9=
EXTT10=
PLAYORDER=
